<svg width="149" height="19" viewBox="0 0 149 19" fill="none" xmlns="http://www.w3.org/2000/svg">
<path d="M9.12 18.216C7.504 18.216 6.08 17.856 4.848 17.136C3.632 16.4 2.68 15.368 1.992 14.04C1.304 12.712 0.96 11.144 0.96 9.336C0.96 7.464 1.32 5.856 2.04 4.512C2.776 3.152 3.8 2.112 5.112 1.392C6.424 0.671999 7.96 0.311999 9.72 0.311999C11.16 0.311999 12.448 0.543999 13.584 1.008C14.72 1.456 15.648 2.104 16.368 2.952C17.088 3.8 17.528 4.824 17.688 6.024H15.024C14.752 4.968 14.152 4.128 13.224 3.504C12.312 2.88 11.144 2.568 9.72 2.568C8.408 2.568 7.296 2.848 6.384 3.408C5.488 3.968 4.808 4.752 4.344 5.76C3.88 6.768 3.648 7.944 3.648 9.288C3.648 11.432 4.176 13.088 5.232 14.256C6.288 15.424 7.712 16.008 9.504 16.008C11.216 16.008 12.576 15.56 13.584 14.664C14.608 13.768 15.12 12.56 15.12 11.04V10.632H9.048V8.64H17.904V18H15.792L15.648 14.664H15.504C15.248 15.368 14.816 15.992 14.208 16.536C13.6 17.064 12.856 17.48 11.976 17.784C11.112 18.072 10.16 18.216 9.12 18.216ZM21.4389 18V5.304H23.6469L23.7669 7.56H23.8869C24.1589 6.744 24.6309 6.136 25.3029 5.736C25.9749 5.336 26.7269 5.136 27.5589 5.136C27.7029 5.136 27.8309 5.144 27.9429 5.16C28.0709 5.16 28.1909 5.168 28.3029 5.184V7.512C28.2069 7.496 28.0869 7.488 27.9429 7.488C27.8149 7.488 27.6789 7.488 27.5349 7.488C26.4149 7.488 25.5429 7.776 24.9189 8.352C24.2949 8.912 23.9509 9.712 23.8869 10.752V18H21.4389ZM35.4394 18.216C34.2074 18.216 33.1194 17.952 32.1754 17.424C31.2474 16.88 30.5194 16.12 29.9914 15.144C29.4794 14.168 29.2234 13.016 29.2234 11.688C29.2234 10.376 29.4714 9.232 29.9674 8.256C30.4794 7.264 31.1994 6.496 32.1274 5.952C33.0554 5.392 34.1594 5.112 35.4394 5.112C36.6714 5.112 37.7514 5.376 38.6794 5.904C39.6074 6.432 40.3274 7.192 40.8394 8.184C41.3674 9.16 41.6314 10.32 41.6314 11.664C41.6314 12.96 41.3754 14.104 40.8634 15.096C40.3674 16.072 39.6554 16.84 38.7274 17.4C37.8154 17.944 36.7194 18.216 35.4394 18.216ZM35.4394 16.152C36.5434 16.152 37.4314 15.768 38.1034 15C38.7754 14.216 39.1114 13.104 39.1114 11.664C39.1114 10.24 38.7834 9.136 38.1274 8.352C37.4714 7.552 36.5754 7.152 35.4394 7.152C34.3354 7.152 33.4394 7.544 32.7514 8.328C32.0794 9.096 31.7434 10.216 31.7434 11.688C31.7434 13.096 32.0794 14.192 32.7514 14.976C33.4234 15.76 34.3194 16.152 35.4394 16.152ZM45.6418 18L42.4018 5.304H44.9458L47.4418 15.528H47.5618L49.9138 5.304H52.6498L55.0738 15.552H55.1458L57.6418 5.304H60.0658L56.8258 18H53.5858L51.2338 8.448H51.1378L48.8578 18H45.6418ZM65.9145 18C64.8745 18 64.1545 17.776 63.7545 17.328C63.3705 16.864 63.1785 16.208 63.1785 15.36V7.32H60.7785V5.304H63.1785V1.632L65.6505 1.344V5.304H68.4585V7.32H65.6505V14.904C65.6505 15.32 65.7305 15.6 65.8905 15.744C66.0505 15.888 66.3305 15.96 66.7305 15.96H68.4585V18H65.9145ZM70.9155 18V0.503999H73.3635V7.824H73.5075C73.8755 6.928 74.4515 6.256 75.2355 5.808C76.0195 5.344 76.8755 5.112 77.8035 5.112C78.6675 5.112 79.4435 5.288 80.1315 5.64C80.8195 5.992 81.3555 6.56 81.7395 7.344C82.1395 8.128 82.3395 9.168 82.3395 10.464V18H79.8675V10.968C79.8675 9.672 79.6275 8.712 79.1475 8.088C78.6675 7.464 77.9235 7.152 76.9155 7.152C76.1955 7.152 75.5635 7.328 75.0195 7.68C74.4915 8.032 74.0835 8.504 73.7955 9.096C73.5075 9.672 73.3635 10.328 73.3635 11.064V18H70.9155ZM93.1211 18.192C91.5051 18.192 90.0891 17.824 88.8731 17.088C87.6571 16.352 86.7051 15.32 86.0171 13.992C85.3451 12.648 85.0091 11.08 85.0091 9.288C85.0091 7.464 85.3611 5.888 86.0651 4.56C86.7691 3.216 87.7611 2.176 89.0411 1.44C90.3211 0.703999 91.8171 0.335999 93.5291 0.335999C94.8731 0.335999 96.0811 0.551999 97.1531 0.983999C98.2411 1.4 99.1371 2.008 99.8411 2.808C100.545 3.608 101.001 4.592 101.209 5.76H99.6731C99.3691 4.496 98.6811 3.496 97.6091 2.76C96.5531 2.024 95.1931 1.656 93.5291 1.656C92.0571 1.656 90.8011 1.976 89.7611 2.616C88.7211 3.24 87.9211 4.128 87.3611 5.28C86.8171 6.416 86.5451 7.744 86.5451 9.264C86.5451 10.816 86.8171 12.168 87.3611 13.32C87.9051 14.456 88.6811 15.336 89.6891 15.96C90.6971 16.584 91.8811 16.896 93.2411 16.896C94.5531 16.896 95.7051 16.656 96.6971 16.176C97.6891 15.68 98.4571 14.984 99.0011 14.088C99.5611 13.192 99.8411 12.136 99.8411 10.92V10.104H92.6891V8.856H101.425V18H100.201L100.081 14.112H99.9371C99.6651 14.928 99.2011 15.648 98.5451 16.272C97.8891 16.88 97.0971 17.352 96.1691 17.688C95.2411 18.024 94.2251 18.192 93.1211 18.192ZM110.246 18.192C109.062 18.192 108.03 17.928 107.15 17.4C106.27 16.872 105.59 16.128 105.11 15.168C104.646 14.192 104.414 13.064 104.414 11.784C104.414 10.488 104.646 9.352 105.11 8.376C105.574 7.4 106.238 6.648 107.102 6.12C107.966 5.576 108.998 5.304 110.198 5.304C111.51 5.304 112.59 5.6 113.438 6.192C114.286 6.768 114.894 7.56 115.262 8.568C115.646 9.576 115.782 10.704 115.67 11.952H105.83C105.862 13.552 106.278 14.792 107.078 15.672C107.878 16.536 108.934 16.968 110.246 16.968C111.286 16.968 112.158 16.728 112.862 16.248C113.582 15.752 114.038 15.088 114.23 14.256H115.622C115.494 15.056 115.182 15.752 114.686 16.344C114.19 16.936 113.558 17.392 112.79 17.712C112.038 18.032 111.19 18.192 110.246 18.192ZM110.174 6.528C108.958 6.528 107.966 6.896 107.198 7.632C106.446 8.368 106.006 9.384 105.878 10.68H114.302C114.27 9.688 114.062 8.888 113.678 8.28C113.31 7.672 112.822 7.232 112.214 6.96C111.606 6.672 110.926 6.528 110.174 6.528ZM118.663 18V5.496H119.983L120.055 8.208H120.151C120.567 7.248 121.183 6.528 121.999 6.048C122.815 5.552 123.711 5.304 124.687 5.304C125.551 5.304 126.319 5.48 126.991 5.832C127.679 6.184 128.215 6.76 128.599 7.56C128.999 8.344 129.199 9.384 129.199 10.68V18H127.783V10.944C127.783 9.424 127.495 8.312 126.919 7.608C126.359 6.888 125.487 6.528 124.303 6.528C123.455 6.528 122.711 6.736 122.071 7.152C121.431 7.568 120.935 8.136 120.583 8.856C120.231 9.56 120.055 10.376 120.055 11.304V18H118.663ZM132.96 3.264V0.503999H134.376V3.264H132.96ZM132.96 18V5.496H134.376V18H132.96ZM143.129 18.192C141.945 18.192 140.913 17.928 140.033 17.4C139.153 16.872 138.473 16.128 137.993 15.168C137.529 14.192 137.297 13.064 137.297 11.784C137.297 10.488 137.529 9.352 137.993 8.376C138.457 7.4 139.121 6.648 139.985 6.12C140.849 5.576 141.881 5.304 143.081 5.304C144.393 5.304 145.473 5.6 146.321 6.192C147.169 6.768 147.777 7.56 148.145 8.568C148.529 9.576 148.665 10.704 148.553 11.952H138.713C138.745 13.552 139.161 14.792 139.961 15.672C140.761 16.536 141.817 16.968 143.129 16.968C144.169 16.968 145.041 16.728 145.745 16.248C146.465 15.752 146.921 15.088 147.113 14.256H148.505C148.377 15.056 148.065 15.752 147.569 16.344C147.073 16.936 146.441 17.392 145.673 17.712C144.921 18.032 144.073 18.192 143.129 18.192ZM143.057 6.528C141.841 6.528 140.849 6.896 140.081 7.632C139.329 8.368 138.889 9.384 138.761 10.68H147.185C147.153 9.688 146.945 8.888 146.561 8.28C146.193 7.672 145.705 7.232 145.097 6.96C144.489 6.672 143.809 6.528 143.057 6.528Z" fill="#101010"/>
</svg>
